<svg id="Layer_1" data-name="Layer 1" xmlns="http://www.w3.org/2000/svg" viewBox="0 0 512 512"><defs><style>.cls-1{fill:#141f38;}</style></defs><title>molecule-1-glyph</title><path class="cls-1" d="M412.72,117.38,355.09,175A127.69,127.69,0,0,1,352,340.52L398,390.16a51.46,51.46,0,1,1-18.73,17.46l-46.13-49.68A127.62,127.62,0,0,1,175,355.09L95.27,434.83a51.33,51.33,0,1,1-18.1-18.1L156.91,337A127.68,127.68,0,0,1,160.3,171.2l-54.87-59.44A38.51,38.51,0,1,1,123.89,94l55.22,59.83A127.62,127.62,0,0,1,337,156.91l57.63-57.63a64.05,64.05,0,1,1,18.1,18.1Z"/></svg>